<?xml version="1.0" encoding="utf-8"?>
<!-- Generator: Adobe Illustrator 24.0.2, SVG Export Plug-In . SVG Version: 6.00 Build 0)  -->
<svg version="1.1" id="shopping-cart_2_" xmlns="http://www.w3.org/2000/svg" xmlns:xlink="http://www.w3.org/1999/xlink" x="0px"
	 y="0px" viewBox="0 0 27.7 24.3" style="enable-background:new 0 0 27.7 24.3;" xml:space="preserve">
<style type="text/css">
	.st0{fill:#FEF7A7;}
</style>
<path id="Trazado_1057" class="st0" d="M8.9,16.2h14.7c0.4,0,0.7-0.2,0.8-0.6l3.2-11.4c0.1-0.4-0.1-0.9-0.6-1c-0.1,0-0.1,0-0.2,0
	H7.1L6.5,0.6C6.4,0.3,6.1,0,5.7,0H0.8C0.4,0,0,0.4,0,0.8s0.4,0.8,0.8,0.8H5L8,14.8c-1.2,0.5-1.8,2-1.3,3.2c0.4,0.9,1.3,1.5,2.2,1.5
	h14.7c0.4,0,0.8-0.4,0.8-0.8c0-0.4-0.4-0.8-0.8-0.8H8.9c-0.4,0-0.8-0.4-0.8-0.8C8.1,16.6,8.5,16.2,8.9,16.2L8.9,16.2z M25.8,4.9
	L23,14.6H9.6L7.4,4.9H25.8z"/>
<path id="Trazado_1058" class="st0" d="M8.1,21.9c0,1.3,1.1,2.4,2.4,2.4c1.3,0,2.4-1.1,2.4-2.4c0-1.3-1.1-2.4-2.4-2.4l0,0
	C9.2,19.5,8.1,20.6,8.1,21.9z M10.5,21.1c0.4,0,0.8,0.4,0.8,0.8c0,0.4-0.4,0.8-0.8,0.8c-0.4,0-0.8-0.4-0.8-0.8
	C9.7,21.5,10.1,21.1,10.5,21.1L10.5,21.1z"/>
<path id="Trazado_1059" class="st0" d="M19.6,21.9c0,1.3,1.1,2.4,2.4,2.4c1.3,0,2.4-1.1,2.4-2.4c0-1.3-1.1-2.4-2.4-2.4c0,0,0,0,0,0
	C20.7,19.5,19.6,20.6,19.6,21.9z M22,21.1c0.4,0,0.8,0.4,0.8,0.8s-0.4,0.8-0.8,0.8c-0.4,0-0.8-0.4-0.8-0.8
	C21.2,21.5,21.6,21.1,22,21.1L22,21.1z"/>
<circle class="st0" cx="10.6" cy="22" r="1.2"/>
<circle class="st0" cx="22" cy="21.9" r="1.2"/>
<polygon class="st0" points="23.5,14.9 9.4,15.2 7.1,4.1 26.4,4.1 "/>
</svg>
