<svg xmlns="http://www.w3.org/2000/svg" width="22.107" height="22.107" viewBox="0 0 22.107 22.107">
  <path id="settings" d="M21.587,8.537l-1.7-.369a9.247,9.247,0,0,0-.547-1.319l.941-1.463a.661.661,0,0,0-.089-.824L17.546,1.914a.661.661,0,0,0-.824-.089l-1.463.941a9.247,9.247,0,0,0-1.319-.547L13.571.52A.661.661,0,0,0,12.925,0H9.182a.661.661,0,0,0-.645.52l-.369,1.7a9.247,9.247,0,0,0-1.319.547L5.385,1.825a.661.661,0,0,0-.824.089L1.914,4.561a.661.661,0,0,0-.089.824l.941,1.463a9.247,9.247,0,0,0-.547,1.319l-1.7.369A.661.661,0,0,0,0,9.182v3.743a.661.661,0,0,0,.52.645l1.7.369a9.247,9.247,0,0,0,.547,1.319l-.941,1.463a.661.661,0,0,0,.089.824l2.647,2.647a.661.661,0,0,0,.824.089l1.463-.941a9.247,9.247,0,0,0,1.319.547l.369,1.7a.661.661,0,0,0,.645.52h3.743a.661.661,0,0,0,.645-.52l.369-1.7a9.247,9.247,0,0,0,1.319-.547l1.463.941a.661.661,0,0,0,.824-.089l2.647-2.647a.661.661,0,0,0,.089-.824l-.941-1.463a9.247,9.247,0,0,0,.547-1.319l1.7-.369a.661.661,0,0,0,.52-.645V9.182A.661.661,0,0,0,21.587,8.537Zm-6.57,2.517A3.963,3.963,0,1,1,11.054,7.09,3.968,3.968,0,0,1,15.017,11.054Zm0,0" fill="#2c2c2c"/>
</svg>
