<svg xmlns="http://www.w3.org/2000/svg" width="23.5" height="20.907" viewBox="0 0 23.5 20.907">
  <path id="heart_1_" data-name="heart (1)" d="M11.75,20.907a1.378,1.378,0,0,1-.908-.341c-.949-.83-1.865-1.61-2.672-2.3l0,0a49.7,49.7,0,0,1-5.834-5.476A8.747,8.747,0,0,1,0,7.062,7.345,7.345,0,0,1,1.864,2.046,6.319,6.319,0,0,1,6.565,0a5.911,5.911,0,0,1,3.692,1.275A7.554,7.554,0,0,1,11.75,2.833a7.555,7.555,0,0,1,1.493-1.559A5.911,5.911,0,0,1,16.935,0a6.32,6.32,0,0,1,4.7,2.046A7.345,7.345,0,0,1,23.5,7.062a8.746,8.746,0,0,1-2.331,5.725,49.687,49.687,0,0,1-5.834,5.476c-.809.689-1.726,1.471-2.677,2.3A1.379,1.379,0,0,1,11.75,20.907ZM6.565,1.377a4.958,4.958,0,0,0-3.689,1.6,5.975,5.975,0,0,0-1.5,4.083A7.36,7.36,0,0,0,3.391,11.91a48.906,48.906,0,0,0,5.667,5.307l0,0c.811.691,1.729,1.474,2.686,2.31.962-.838,1.882-1.622,2.695-2.314A48.914,48.914,0,0,0,20.11,11.91a7.36,7.36,0,0,0,2.014-4.847,5.975,5.975,0,0,0-1.5-4.083,4.957,4.957,0,0,0-3.689-1.6,4.566,4.566,0,0,0-2.85.987A6.68,6.68,0,0,0,12.5,4.2.869.869,0,0,1,11,4.2,6.674,6.674,0,0,0,9.415,2.363,4.565,4.565,0,0,0,6.565,1.377Zm0,0"/>
</svg>
