<svg id="excel-file" xmlns="http://www.w3.org/2000/svg" width="26" height="26" viewBox="0 0 26 26">
  <path id="Trazado_1100" data-name="Trazado 1100" d="M25.162,3H16V5.984h3.031V8.015H16V10h3v2H16v2h3v2H16v2h3v2H16v3h9.162A.857.857,0,0,0,26,22.13V3.87A.857.857,0,0,0,25.162,3ZM24,20H20V18h4Zm0-4H20V14h4Zm0-4H20V10h4Zm0-4H20V6h4Z" fill="#030104"/>
  <path id="Trazado_1101" data-name="Trazado 1101" d="M0,2.889V23.112L15,26V0ZM9.488,18.08l-1.745-3.3a2.926,2.926,0,0,1-.2-.678H7.511a5.135,5.135,0,0,1-.234.707L5.526,18.08H2.807l3.228-5.064L3.082,7.951H5.858l1.448,3.037a5.306,5.306,0,0,1,.3.854h.028q.086-.3.318-.883L9.566,7.95h2.542L9.071,12.972l3.122,5.107Z" fill="#030104"/>
</svg>
