<svg id="Grupo_44" data-name="Grupo 44" xmlns="http://www.w3.org/2000/svg" width="35.98" height="35.981" viewBox="0 0 35.98 35.981">
  <path id="Trazado_146" data-name="Trazado 146" d="M253.784,797.773a17.991,17.991,0,1,1,17.99-17.99,18.01,18.01,0,0,1-17.99,17.99m0-34.048a16.057,16.057,0,1,0,16.058,16.058,16.076,16.076,0,0,0-16.058-16.058" transform="translate(-235.794 -761.792)" fill="#fff"/>
  <path id="Trazado_147" data-name="Trazado 147" d="M266.892,790.914v6.944a.18.18,0,0,0,.181.181h2.578a.18.18,0,0,0,.181-.181V790.8H271.7a.181.181,0,0,0,.181-.166l.179-2.126a.18.18,0,0,0-.18-.2h-2.049V786.8a.641.641,0,0,1,.64-.64h1.441a.181.181,0,0,0,.181-.181v-2.126a.181.181,0,0,0-.181-.181h-2.435a2.586,2.586,0,0,0-2.586,2.587v2.05H265.6a.181.181,0,0,0-.181.181v2.126a.181.181,0,0,0,.181.181h1.289Z" transform="translate(-250.787 -772.866)" fill="#fff" fill-rule="evenodd"/>
</svg>
