<svg xmlns="http://www.w3.org/2000/svg" width="21.159" height="20.184" viewBox="0 0 21.159 20.184">
  <g id="star_1_" data-name="star (1)" transform="translate(0 -11.796)">
    <g id="Grupo_953" data-name="Grupo 953" transform="translate(0 11.796)">
      <path id="Trazado_1081" data-name="Trazado 1081" d="M21.128,19.46a.62.62,0,0,0-.5-.422l-6.559-.953-2.933-5.944a.62.62,0,0,0-1.112,0L7.09,18.085l-6.559.953A.62.62,0,0,0,.187,20.1l4.746,4.627-1.12,6.533a.62.62,0,0,0,.9.653l5.867-3.084,5.867,3.084a.62.62,0,0,0,.9-.653l-1.121-6.533L20.972,20.1A.62.62,0,0,0,21.128,19.46Z" transform="translate(0 -11.796)" fill="#2c2c2c"/>
    </g>
  </g>
</svg>
