<?xml version="1.0" encoding="utf-8"?>
<!-- Generator: Adobe Illustrator 24.0.2, SVG Export Plug-In . SVG Version: 6.00 Build 0)  -->
<svg version="1.1" id="Capa_1" xmlns="http://www.w3.org/2000/svg" xmlns:xlink="http://www.w3.org/1999/xlink" x="0px" y="0px"
	 viewBox="0 0 128.2 122.1" style="enable-background:new 0 0 128.2 122.1;" xml:space="preserve">
<style type="text/css">
	.st0{fill:#878787;}
</style>
<path id="Trazado_97" class="st0" d="M22.5,1.4c0.4,0.2,1.2-0.1,1.8,0c0.1,0.6,0.6,1.1,1,1.6l2.3-1.8c-0.5-0.4-0.9-0.8-0.9-1.2
	c-1.1,0-2.2,0.1-3.3,0.2l-0.1,0.1l-0.6,0.5c-0.2,0-0.3,0.1-0.5,0.2C22.3,1.2,22.4,1.3,22.5,1.4z"/>
<path id="Trazado_98" class="st0" d="M15.5,10.7c2.1-1.8,3.7-3.1,5.4-4.4c-0.1-0.2-0.3-0.4-0.4-0.7c-0.1-0.2-1.4,0.1-1.8-0.1
	c-0.1-0.3,1.5-0.6,1.5-0.9s-1-0.4-1.7-0.6c-1,1.3-2.3,2.4-3.8,3c-0.3,0.2-0.6,0.4-0.9,0.6l-1.1,0.9l-0.6,4.7l2.7-2.1L15.5,10.7z"/>
<path id="Trazado_99" class="st0" d="M23,4.5c-2.8,0.3,0.6,0.5-1.5,0.8c0.2,0.1,0.4,0.1,0.5,0.2c0.5-0.3,1-0.7,1.5-1
	c0.1-0.1,0.2-0.1,0.3-0.2c-0.7,0.1-1.4,0.1-2.1,0.1c0.2,0.1-0.3,0.2-0.5,0.3C21,4.8,21.8,4.5,23,4.5z"/>
<path id="Trazado_100" class="st0" d="M37.2,12.1L37,12.2c0.2,0,0.4,0,0.6,0C37.8,12.1,37.4,12.1,37.2,12.1z"/>
<path id="Trazado_101" class="st0" d="M21.5,24.4c-0.3,0.4-0.7,0.8-1.1,1.2c0.6,0.9,1.3,1.6,1.7,2.2l0.1-0.1
	c0.3-0.2,0.6-0.5,0.9-0.7c1.1-0.9,2.3-1.8,3.5-2.7c-0.7-0.9-1.5-2.4-1.2-2.5l1.2,1.4c-0.5-0.1-0.2,0.4,0.2,1
	c3.7-2.8,7.5-5.5,10.9-8.2l0.6-0.5l1.7-1.3l0.6-0.4c0.2-1,0.5-1.9,1-2.7c-0.2-0.3-0.4-0.6-0.6-0.8c0.2,0,0.5,0.2,0.9,0.5
	c0.9-0.8,2.1-1,4.5-1.3l0.7-0.5c0-0.4,0.2-0.8-0.3-1.3c0.4,0.1,0.7,0.2,1.1,0.3c0,0-0.1-0.1-0.1-0.1c0-0.3,0.3-0.1,0.6,0.1
	c0.2-0.2,0.4-0.4,0.6-0.5l0.6-0.5c4.8-3.7,8-6.2,8-6.2l-4.7-0.6l-5,3.8c0.5,1,0.5,2-1.1,2.9C46.2,6.4,46,5.8,46,5.2
	c-0.3,0.2-0.5,0.4-0.7,0.7c-0.2,0.2-0.4,0.5-0.7,0.8c-2.2,2.5-5,3.1-7.2,5.3c1,0.1,1.1,0.4-0.6,0.5l-0.1,0.1c-0.5,0.4-1,0.8-1.6,1.2
	c0.1,0.4,0.5,0.8,2,1.1l-1.8,0c0.1,0.4,0.5,1.1-1.1,1.4c-1.1-0.4,1-1.3-0.2-1.7l-0.3,0.2c-0.2,0.2-0.4,0.3-0.6,0.5
	c-3.6,3-7.3,5.8-11,8.6C22,24,21.7,24.2,21.5,24.4z"/>
<path id="Trazado_102" class="st0" d="M15,33.5l0.8-0.6c0.7-1.3,3.5-1.9,4.8-3.6c0.2-0.2,0.5-0.5,0.7-0.8c0.2-0.2,0.3-0.3,0.5-0.5
	c-0.6-0.7-1.2-1.4-0.5-0.4c-0.9-0.4-0.5-0.8-1.2-1.7C15.8,29.4,8.5,31.4,9.2,38C11,36.3,13,34.8,15,33.5z"/>
<path id="Trazado_103" class="st0" d="M82.3,3.9L81,3.7C81.4,5,79.4,4,80,5.6L82.3,3.9z"/>
<path id="Trazado_104" class="st0" d="M11.3,58.8l0.7-0.6l6.7-5.2l0.9-0.7c1.8-0.9,3.1-4.4,5.5-4.2c0.2-0.1,0.3-0.2,0.5-0.4L29,45
	l0.5-0.4c7.3-6.8,16-10.2,22.7-17.5c0.2-0.1,0.4-0.3,0.6-0.5l2.3-1.8l0.5-0.4c2.6-2.8,5.7-4.6,8.8-6.8c0.3-0.2,0.6-0.4,0.9-0.6
	c3.1-2.7,5.2-5.2,8.4-6.6c0.3-0.2,0.7-0.5,0.9-0.7c0.9-0.7,1.8-1.4,2.5-2c-0.4-1.9,1.1-1.3,1.3-2.7l0.9,1l0.5-0.4l-1.4-1.5
	c0.7,0,0.9-0.3,0.9-0.7l-1.9-0.2l-4.1,3.2L73,6.8c-0.6,0.3-1.1,0.6-1.6,1c0.3,0.2-0.1,0.6,1.3,0.6c1.4,0,0.3-0.4,2.3-0.3
	c0.2,0.2-0.9,0.2-0.5,0.4c-0.7,0-0.8,0-1.4,0c-0.4,0.4,0.3,0.5,0.3,0.8c-0.4,0-0.9-0.1-1.4,0c2.5,0.3-1.4,0.9-0.3,1.7
	c-1.9-0.5-1.5-1.5-1.3-2.3c-1.6,1.6-3.1,3.6-5.8,4.7c-0.3,0.2-0.5,0.4-0.8,0.6c-3,2.7-5.3,6-9.7,7.4c-0.2,0.2-0.4,0.3-0.6,0.5
	l-7.3,5.6c-0.2,0.2-0.4,0.3-0.6,0.5c-5.8,6.8-14.4,9.3-20.3,15.7c-0.2,0.1-0.4,0.3-0.5,0.4l-0.5,0.4c-3.2,0.7-4.6,4-7.2,5.6
	c1.1,2-1.2,1.5-1,2.9c-0.4-0.6-0.5-1.3-0.4-1.9c-2,1.5-3.7,2.9-5.2,4l-0.7,0.5C6.8,57,6.5,59.7,6,63.3C7.3,60.7,10.1,60.2,11.3,58.8
	z M27.9,42.8c0.3,0.8,0.4,2-0.6,1.3C27,43.3,27.1,42.2,27.9,42.8L27.9,42.8z M27.7,44.5c1,1.6-0.9,0.1-0.9,0.7
	C24.7,42.8,26.8,43.7,27.7,44.5L27.7,44.5z M14.6,52.7c0.1,1.6-0.2,2.6-1.6,2.8C12.8,54.2,13.6,53.4,14.6,52.7L14.6,52.7z"/>
<path id="Trazado_105" class="st0" d="M105.9,8c-0.5-0.5-0.9-1-0.4-0.9c-0.1-0.1-0.2-0.2-0.3-0.3l-0.5-0.1c0.7,0.8,0.2,0.8,0.9,1.5
	L105.9,8z"/>
<path id="Trazado_106" class="st0" d="M16.1,77.4c1.2-1.6,3-1.4,4-3.1l0.5-0.4l1.4-1.1c0.2-0.2,0.6-0.5,0.8-0.6
	c1.8-3.8,5.4-3.3,7.2-5.6l0.5-0.4c5.2-4,10.7-8.3,16.4-12.7c0.2-0.2,0.4-0.4,0.7-0.6c1.4-2.5,2.4-3.3,5.3-4c0.2-0.2,0.5-0.3,0.7-0.5
	s0.4-0.3,0.7-0.5l0.7-0.5c2.5-1.9,5.1-3.9,7.5-5.8c0.2-0.2,0.5-0.4,0.7-0.6c1.9-2.2,4.2-4,6.9-5.3l0.5-0.4l5.7-4.4l0.9-0.7
	c2.6-1.9,5.7-4.3,8.4-6.5c0.2-0.2,0.5-0.4,0.7-0.6c2.5-2.6,6.4-3.9,8.2-6.2c0.2-0.1,0.3-0.2,0.6-0.4l10.4-8c-0.7-0.7-1.4-1.4-2-1.9
	l-0.8-0.1l-1.9,1.5c0.2,0.2,0.5,0.4,0.7,0.5c1.1,1.7-2.1-1.3-0.1,0.9c-0.7-0.5-0.8,0.3-1.5-0.8l-0.1,0.1c0.2,0.7,0.2,1.3,0.1,2
	c-0.4-0.4-0.7-0.9-0.8-1.5l-7.3,5.7c-0.2,0.1-0.3,0.3-0.5,0.4C90,18,88,18.7,85.6,19.4c-0.3,0.2-0.5,0.4-0.8,0.6
	c-0.3,0.3-0.6,0.6-0.9,0.8c0,0.2,0,0.3-0.2,0.3l0,0c-1,1.1-2,2.2-3.1,3.1c0.5,0.6,0.8,1.3,0.6,1.5c-0.4-0.4-0.7-0.8-1-1.2
	c-0.1,0.1-0.3,0.2-0.4,0.3l1,1.2l-0.4,0.3c-0.4-0.4-0.7-0.8-0.9-1.3c-0.9,0.8-2,1.3-3.2,1.6c-0.3,0.2-0.5,0.4-0.8,0.6L69,32.3
	c-0.3,0.2-0.6,0.4-0.8,0.7c-2.5,2.1-4.6,4.6-7.4,6.4c-0.1,0.1-0.3,0.2-0.5,0.4c-3.5,2.9-7.3,5.2-10.9,7.8c-0.1,0.5-0.3,0.6-0.9,0.7
	L48,48.5c0,0,0,0-0.1,0c-0.4,0.3-0.8,0.6-1.2,0.9c0.2,0.3,0.4,0.7,0.1,0.7c-0.2-0.2-0.3-0.4-0.4-0.5c-0.5,0.4-1,0.8-1.5,1.3
	c0.3,0.3,0.6,0.6,0.9,1l-0.5,0.4c-0.3-0.3-0.6-0.7-0.8-1c-0.1,0.1-0.2,0.2-0.3,0.3l-0.2,0.1c0.2,0.3,0.4,0.5,0.5,0.5
	c0.1,0.6-0.5,1.2-1.2,1.8c-0.9-1.7,0.6-0.9,0.3-2l-0.1,0l-10.8,8.4c-0.2,0.2-0.4,0.3-0.7,0.5c-2.6,0.7-3.1,2.2-4.4,3.4
	c-0.2,0.2-0.4,0.3-0.6,0.5c-1.3,2-3.1,3.5-5.3,4.3c-0.2,0.2-0.5,0.3-0.8,0.5L20.3,70l-17,13.2l-0.6,4.7l13-10L16.1,77.4z M95.2,13.1
	c0.8,0.1,1,0.3,1.8,0.4C96.8,13.6,93.9,13.3,95.2,13.1L95.2,13.1z"/>
<path id="Trazado_107" class="st0" d="M107.1,7.1L107,7C107,7.1,107.1,7.1,107.1,7.1L107.1,7.1z"/>
<path id="Trazado_108" class="st0" d="M106.8,7.3L106.5,7c0,0,0.1,0,0.1,0l-0.5-0.1c0,0.3-0.2,0.4-0.6,0.2l0.7,0.7L106.8,7.3z"/>
<path id="Trazado_109" class="st0" d="M123.2,13.4c0.4,0.5,0.7,0.9,1.1,1.4c0.2-0.1,0.4-0.3,0.4-0.5
	C124.2,13.6,123.7,13.1,123.2,13.4z"/>
<path id="Trazado_110" class="st0" d="M123.2,17.1c-0.4-0.2-0.7-0.5-1-0.7v0c0.3,0.3,0.5,0.6,0.7,0.9L123.2,17.1z"/>
<path id="Trazado_111" class="st0" d="M121.6,14.1l-0.2,0.2C121.6,14.3,121.7,14.2,121.6,14.1z"/>
<path id="Trazado_112" class="st0" d="M109.4,26c0,0.3,0.6,0.9,0.6,1.2l0.3-0.3C110,26.7,109.7,26.4,109.4,26z"/>
<path id="Trazado_113" class="st0" d="M117.7,20.9c0.1,0.1,0.1,0.2,0.2,0.3l3.1-2.4c-0.9-0.7-1.7-1.5-2.4-2.3l-0.3,0.2
	c0.7,0.6,1.3,1.3,1.7,2.2l0.2-0.2c-0.6,0.9-1.4,1.7-2.4,2.2c-0.8-0.6-1.5-1.3-2-2.2l-0.4,0.3C116.6,20.4,116.9,20.1,117.7,20.9z"/>
<path id="Trazado_114" class="st0" d="M124.8,15.5l0.2,0.2l0.6-0.4c-0.3-0.3-0.5-0.6-0.8-0.9C124.8,14.7,124.8,15.1,124.8,15.5z"/>
<path id="Trazado_115" class="st0" d="M24.8,92.7c1-1,2.1-1.9,3.2-2.6c0.3-0.2,0.6-0.4,0.9-0.7c4.6-3.5,9.5-6.9,14.2-10.1l0.8-0.5
	c1.5-1,3-2.1,4.4-3.2c0.3-0.2,0.5-0.4,0.7-0.6c2.5-1.1,4.6-3.6,6.8-5.7l0.9-0.7l9.8-7.6c-0.8-1.3,1.1-0.8,1.1-1.6
	c0.1,0.2,0.2,0.3,0.3,0.5l3.6-2.8c-1.2-0.9-0.8-0.1-1.7-0.4c-0.6-1,0.3-0.9,0.1-1.7c0.7,0.6,1.3,1.2,1.7,2l9.8-7.6l0.6-0.5
	c3.2-2,5.3-4.4,8.8-6.8c0.2-0.2,0.4-0.3,0.6-0.5l1.9-1.5l0.5-0.4c1.3-0.4,2.5-1.1,3.5-2.1c0.2-0.2,0.5-0.4,0.7-0.6
	c1.5-2.1,3.4-2.8,4.7-4.3c0.2-0.1,0.4-0.3,0.5-0.4l6.4-4.9c0,0-0.1,0-0.1,0c-1.7-2.1,0.1-1.8-0.3-3c0.8,0.3,1.4,1.8,1.8,1.7
	c0,0.1,0,0.2,0,0.3l1.4-1.1c-0.5-1-1.3-1.8-2.2-2.5c-2.4,1.9-5,3.9-7.7,6c-0.3,0.2-0.5,0.4-0.7,0.5c-3.5,0.9-4,4.5-7.3,6.2
	c-0.3,0.1-0.5,0.2-0.8,0.3s-0.5,0.2-0.7,0.3c-0.2,0.1-0.3,0.2-0.5,0.4l-2,1.5l-0.3,0.2c1,1.1-0.1,0.8,0.6,1.7
	c-0.5-0.3-1-0.7-1.4-1.1l-0.2,0.1c-0.4,1.5-0.5,3.1-2,3.3c-1.5-2.7,0.9-0.9,0.8-2.3c0,0,0,0-0.1-0.1c-1.4,1-2.8,2.1-4.1,3.1
	c-0.2,0.2-0.5,0.4-0.7,0.6c-1.6,2-4.4,2.5-4.9,3.9c-0.3,0.2-0.5,0.4-0.8,0.6l-9.2,7.1l-0.9,0.7c-1.2,1.5-4,2.1-5.3,4.1
	c-0.1,0.1-0.3,0.3-0.4,0.4c-2.8,2.2-5.6,4.3-8.4,6.5c-0.3,0.2-0.6,0.5-0.9,0.7c-0.7,2.8-3.3,1.5-4.1,3.2c-0.3,0.2-0.5,0.5-0.9,0.7
	c-2.4,2-4.8,3.7-7.2,5.4c-0.3,0.2-0.5,0.4-0.8,0.6c-3.9,3-7.7,6.2-11.5,9.2c-0.3,0.2-0.5,0.4-0.8,0.6c-2,1.2-4.3,3.4-6.4,5
	c-0.2,0.2-0.5,0.4-0.7,0.5c-2.7,1.7-5.9,4.9-8.8,6.6c-0.2,0.2-0.4,0.3-0.6,0.5L0.1,108L0,108.9l3.8,0.5l7.8-6l0.6-0.5
	c4.7-2.3,8-6.5,12-9.6C24.4,93.1,24.6,92.9,24.8,92.7z M73.6,52.6c1.4,1.8-0.5,1.5-0.7,2.2C72.4,53.3,72.8,52.6,73.6,52.6L73.6,52.6
	z"/>
<path id="Trazado_116" class="st0" d="M118.8,17.5l-0.6-0.7l-0.9,0.7c0.1,0.3,0.3,0.6,0.5,0.9C119.3,19.5,117.9,17.3,118.8,17.5z"/>
<path id="Trazado_117" class="st0" d="M113,25c1.7-1.4,3.4-2.6,4.9-3.8c-0.4-0.2-1.5-1.2-1.7-1.3c-0.1,0.5,0,1.2-0.1,1.8
	c-2.2-3-1.3-0.4-2.6-0.9c0-0.1-0.1-0.1-0.1-0.2l-0.5,0.4c0.1,0.1,0.1,0.1,0.2,0.2c-0.1,0.4,0.2,1.1-0.4,1.2
	c-0.2-0.3-0.4-0.5-0.5-0.8l-1.3,1C111.5,23.3,112.3,24.1,113,25z"/>
<path id="Trazado_118" class="st0" d="M122.4,17.7c-0.1-0.1-0.2-0.3-0.3-0.4c0,0.1,0,0.2,0,0.2c-0.1-0.2-0.1-0.4-0.2-0.5
	c-0.1-0.1-0.2-0.2-0.4-0.4c-0.4,0.1-0.4,0.5,0.4,1.4C122.1,17.9,122.2,17.8,122.4,17.7z"/>
<path id="Trazado_119" class="st0" d="M119.8,15.5l-0.6,0.5c0.1,0.2,0.2,0.5,0.4,0.7C119.9,16.8,120.1,16.3,119.8,15.5z"/>
<path id="Trazado_120" class="st0" d="M127.1,9.9c0.2,0.1,0.4,0.2,0.6,0.1c0.3,0.8-0.3,0.9-1.3,0.4l-2.7,2.1
	c0.2,0.2,0.4,0.4,0.6,0.6c-1.5-0.6,0.6,1.4,1.4,2l0.5-0.4c-0.1,0-0.1-0.1-0.2-0.1c0,0.2-0.3,0.2-0.6,0c-0.6-0.9-1.2-1.8-0.7-1.9
	c0.3,0.3,0.7,0.7,0.9,1.1c0.6-0.5,1.3-0.9,2-1.1l0.4-2.8l-0.8-0.1L127.1,9.9z"/>
<path id="Trazado_121" class="st0" d="M123.9,34.7l-0.8,0.7c0.5,0.3,1,0.6,1.5,0.9C123.7,35.3,123.7,34.9,123.9,34.7z"/>
<path id="Trazado_122" class="st0" d="M123.1,36c-0.1-0.1-0.2-0.2-0.4-0.3l-0.1,0.1c0.1,0.3,0.4,0.9-0.1,0.8
	c-0.1-0.2-0.2-0.3-0.3-0.5L88.4,62.2c-0.2,0.2-0.5,0.3-0.7,0.5c-3.3,2.7-7.1,5.7-10.9,8.6c0.3,1,0.2,1.5-0.4,1.5
	c-0.2-0.2-0.4-0.5-0.5-0.8c-1.6,1.2-3.1,2.4-4.7,3.5L70.6,76c-12.8,9.9-25.3,19.6-34.1,26.4c-0.3,0.2-0.6,0.5-0.9,0.7
	c-0.5,0.6-1.1,1-1.7,1.3c-0.3,0.2-0.5,0.4-0.8,0.6c-1.9,1.4-3.5,2.7-4.8,3.7c-0.2,0.1-0.4,0.3-0.6,0.4c-1.8,0-2.2,2.7-4,2.4
	c1.3,0.1,2.5,0.4,3.7,0.8l1.3,0.2l27.4-21.2c-0.1,0-0.1-0.1-0.2-0.1c-0.5-1.1-0.2-1.2,0.4-1.1c0.2,0.2,0.4,0.4,0.5,0.7l19.8-15.3
	c0.2-0.2,0.4-0.3,0.7-0.5c1.4-1.1,2.8-2.3,4.1-3.6c-0.5-0.8-0.1-0.7,0.4-0.8c0.1,0.1,0.1,0.1,0.2,0.2c0.1-0.1,0.3-0.3,0.4-0.4
	c-0.1-0.3,0.6-0.9,0.9-1.9c0.2,0.2,0.4,0.4,0.6,0.7c0,0,0.1-0.1,0.1-0.1c-0.2-0.2-0.4-0.5-0.6-0.7c0.3,0.1,0.6,0.2,0.8,0.5
	c1.1-0.9,2.3-1.6,3.6-2.3c-0.3-0.6-0.7-1.3-0.4-1.6c0.4,0.4,0.8,0.7,1.1,0.7c0.1,0.2,0.1,0.3,0.2,0.5c0.2-0.1,0.3-0.3,0.5-0.4
	l1.5-1.1c-0.6-0.3-1.2-0.6-1.9-0.8c-1.1-2.5,1.5,0,2.6,0.2v0l8.4-6.5c-0.5-0.4-1-0.8-1.4-1.2c0.9-0.2,0.6-1.3,1.1-1.8
	c0.5,0.7,0.8,1.3,1.4,2.1c-0.5-0.1-0.7,0-0.5,0.5l19.6-15.2c0.9-1.5,1.9-3.2,2.9-4.9c0.4,0.5,0.8,0.9,1.2,1.4
	C122.7,37.1,123.5,36.9,123.1,36z"/>
<path id="Trazado_123" class="st0" d="M76.4,71.6l-0.2,0.1C76.3,71.7,76.4,71.7,76.4,71.6z"/>
<path id="Trazado_124" class="st0" d="M124.6,34.2l-0.6,0.5C124.2,34.5,124.6,34.5,124.6,34.2z"/>
<path id="Trazado_125" class="st0" d="M102.2,74c-1.2,1.5-3.2,2.2-5,3.8l-0.6,0.5c-0.2,0.2-0.4,0.3-0.6,0.5c-1.4,0.9-2.7,1.9-3.9,3
	c-0.2,0.2-0.4,0.3-0.7,0.5l-2,1.5l-0.7,0.5c-0.1,0.5-0.5,0.9-1,1.1c0.1,0.5,0.5,1.2,1.1,0.9c0.2,1.7-2.9,0.4-2,2.5
	c-0.9-1.3-1-1.3-1.5-1.9l-0.6,0.4c0.2,0.3,0.5,0.6,0.8,0.9c-0.3-0.3-0.6-0.6-0.9-0.8c-0.8,0.7-1.7,1.3-2.5,2
	c0.4,0.6,0.7,1.1,1.1,1.7c-0.4,0.4-0.7-0.5-1.4-1.4L81.4,90l-0.7,0.5c-2.1,1.4-4.3,3.9-7.1,5.5L73,96.6L72.4,97
	c-0.2,0.2-0.4,0.3-0.6,0.5c-1.1,1.4-2.6,2.6-4.2,3.3c-0.2,0.1-0.4,0.3-0.6,0.5L49,115.1l4.7,0.6l14.2-11l0.6-0.4
	c1.7-2.5,5.4-2.9,7-5.4c0.2-0.2,0.4-0.3,0.6-0.5l0.6-0.5c0.2-0.2,0.4-0.3,0.6-0.5c1.8-0.9,2.9-2.6,4.4-3.4c0.2-0.2,0.4-0.3,0.7-0.5
	l15.5-12l0.6-0.5c0.3-0.2,0.6-0.4,0.8-0.5c-1-1.1-1-1.6-0.6-1.7c0.4,0.4,0.8,0.9,0.9,1.5c2.3-1.5,4.5-3.2,6.5-5.2l0.2-0.1
	c0-0.1-0.1-0.1-0.1-0.2c0.1,0,0.1,0.1,0.2,0.1c0.1-0.1,0.2-0.1,0.3-0.2l14.7-11.4l0.6-4.7l-19.1,14.8
	C102.6,73.6,102.4,73.8,102.2,74z"/>
<path id="Trazado_126" class="st0" d="M86.1,86.2c-0.2,0.1-0.3,0.2-0.4,0.4c0.3,0.3,0.7,0.6,1.2,0.7C86.6,86.9,86.4,86.5,86.1,86.2z
	"/>
<path id="Trazado_127" class="st0" d="M110.2,90.2c-0.8,0.5-1.5,1-2.2,1.5c-0.2,0.2-0.4,0.4-0.7,0.5c-0.1,0.1-0.1,0.1-0.2,0.2
	c0,0,0,0.1,0,0.1c0,0-0.1,0-0.1-0.1c-0.3,0.4-0.7,0.7-1,1.1l0,0l0,0c-0.8,0.8-1.7,1.6-2.6,2.3c0.1,0.1,0.2,0.3,0.4,0.5
	c-0.3,0.1-0.8,0.1-1.2,0.2c-0.9,0.7-1.8,1.3-2.6,2c0,0.1,0,0.2,0,0.3c-0.1,0-0.1-0.1-0.2-0.1c-0.3,0.2-0.7,0.5-1,0.7l-0.8,0.6
	c-1.2,1.3-2.5,2.4-4,3.3c-0.1,1.4-2.1,1.3-2.7,2c0-0.1-0.1-0.1-0.1-0.2c-0.3,0.2-0.6,0.4-1,0.7l-0.6,0.5l-0.2,0.1
	c0.5,0.4,0.9,0.6,1.4,0.9c0,0.6-1.1,0.2-1.8,0.7c-0.3-0.3-0.5-0.6-0.7-0.8l-0.3,0.2c0.3,0.4,0.8,0.8,1.2,1.1c0,0.2-0.3-0.1-0.5-0.4
	c-0.6,0.3,0.1,1.9-1.4,1.2c-0.3-0.3-0.5-0.5-0.7-0.8l-12.7,9.8l4.7,0.6l14.4-11.1c0.2-0.2,0.4-0.4,0.6-0.6c1.9-3,0.9-2.2,4.9-3
	c0.3-0.2,0.6-0.5,0.8-0.8c3.1-3.3,4.4-8.3,9.1-7.8c0.2-0.1,0.4-0.3,0.7-0.4c0.7-0.4,1.3-0.9,1.9-1.4c0.2-0.1,0.3-0.3,0.5-0.4
	c1.6-1.2,2.9-2.3,4-3.1c-0.1-0.1-0.2-0.3-0.4-0.5c0.3-1.3,1.4-0.7,1.3-1.9c-0.1-0.3,0.6,0.4,1,0.9l0.1-0.1l-0.1-0.1c0,0,0.1,0,0.1,0
	l0.3-0.2c-0.2-0.2-0.4-0.3-0.6-0.5c0.5-0.1,0.8-0.7,1.1-1.3l0.4-3.1l-8,6.2C110.6,89.9,110.4,90.1,110.2,90.2z M98.6,103.1
	c-1.3-1.7,0.1-1.4,0.6-1.3C100.7,103.8,98.6,102.2,98.6,103.1z"/>
<path id="Trazado_128" class="st0" d="M98.8,121.5L98.8,121.5L98.8,121.5L98.8,121.5z"/>
<path id="Trazado_129" class="st0" d="M114.3,109.6c0.1,0,0.2-0.1,0.2-0.2L114.3,109.6z"/>
<path id="Trazado_130" class="st0" d="M112.1,112.1c1.5,1.9-1.2,0.5-0.4,1.6c-0.7-0.7-0.9-1-0.9-1.2c-0.4,0.3-0.8,0.6-1.2,0.9
	c-0.2,0.1-0.4,0.3-0.6,0.4c-0.2,0.1-0.3,0.2-0.5,0.3c0.2,0.1,0.3,0.4,0.2,0.4c0.6,0.8,0.9,0.9,1.5,1.5c0.2-0.2,0.4-0.3,0.6-0.4
	c1-0.7,2-1.3,2.8-2C113.3,113.2,113.9,112.3,112.1,112.1z"/>
<path id="Trazado_131" class="st0" d="M115.6,108.5c0,0-0.2,0.1-0.5,0.4c-0.1,0.1-0.2,0.1-0.2,0.2c0.2,0.2,0.5,0.4,0.7,0.6
	c0-0.3,0-0.6-0.1-0.9L115.6,108.5z"/>
<path id="Trazado_132" class="st0" d="M100.2,120.4c0.2,0.3,0.5,0.5,0.7,0.8c-0.2-0.3-0.3-0.6-0.5-1L100.2,120.4z"/>
<path id="Trazado_133" class="st0" d="M108.4,115.7c-1.2-1.7,0.5-0.4-0.1-1.4c-1.1,0.7-2.1,1.3-3,2c0.2-0.1,0.4-0.1,0.7-0.2
	c0,0.1,0,0.2,0,0.2c-0.5,0.2-0.9,0.3-1.2,0.3c-1.1,0.8-2.2,1.7-3.3,2.7l0,0c0.2,0,0.4,0.1,0.6,0c0,0.8-0.2,1.7-0.5,2.4l1.9,0.2
	c0,0,0.4-0.3,1.2-0.9c0.1-0.1,0.3-0.3,0.4-0.4c0-0.2,0-0.4,0-0.6c-0.7-0.2-1.9-0.3-1.8-0.8c0.1-0.6,3.1-1.9,2-2.2
	c1.2-0.3,1.6-0.2,1.7-0.1c-0.1-0.2-0.2-0.3-0.4-0.5l0.5-0.4c0.2,0.3,0.3,0.6,0.5,0.9c0.8-0.3,1.7-0.5,2.5-0.6
	C109.5,116.1,108.7,115.4,108.4,115.7z"/>
<path id="Trazado_134" class="st0" d="M113.8,110.4c0-0.1-0.1-0.2-0.1-0.3c-0.5,0.5-1,0.9-1.5,1.3c0.4,0,0.5,0.1,0.2,0.3
	c-0.2,0-0.4,0.1-0.6,0.1c-0.3,0.2-0.5,0.4-0.8,0.6c0.3-0.1,0.9,0,1-0.3c-0.2,0-0.3,0-0.5,0c0.2,0,0.3,0,0.5,0c0,0,0-0.1,0-0.1
	c0,0,0.1,0.1,0.1,0.1c0.9,0,1.8,0.2,2.6,0.5c0.2-0.3,0.4-0.6,0.6-1C114.7,111.3,114.2,110.9,113.8,110.4z"/>
<path id="Trazado_135" class="st0" d="M114.7,110.4c0.2,0.3,0.4,0.6,0.7,0.8c0.1-0.3,0.1-0.5,0.2-0.8
	C115.2,110.2,114.9,110.2,114.7,110.4z"/>
<path id="Trazado_136" class="st0" d="M99.7,120.8c-0.4,0.3-0.7,0.5-0.9,0.7c0,0,0.1,0.1,0.1,0.1l1.8,0.2
	C100.4,121.5,100,121.1,99.7,120.8z"/>
<path id="Trazado_137" class="st0" d="M106.8,117.3c0.1,0,0.1-0.1,0.2-0.1c0,0-0.1-0.1-0.1-0.1C106.9,117.1,106.8,117.2,106.8,117.3
	z"/>
</svg>
