<svg xmlns="http://www.w3.org/2000/svg" width="17.653" height="17.651" viewBox="0 0 17.653 17.651">
  <g id="auction" transform="translate(0 -0.03)">
    <g id="Grupo_103" data-name="Grupo 103" transform="translate(6.179 13.946)">
      <g id="Grupo_102" data-name="Grupo 102">
        <path id="Trazado_180" data-name="Trazado 180" d="M1.326,387.484h8.823a1.326,1.326,0,0,1,1.326,1.326v2.41H0v-2.41A1.326,1.326,0,0,1,1.326,387.484Z" transform="translate(0 -387.484)" fill="#2c2c2c"/>
      </g>
    </g>
    <g id="Grupo_105" data-name="Grupo 105" transform="translate(0 0.03)">
      <g id="Grupo_104" data-name="Grupo 104" transform="translate(0 0)">
        <path id="Trazado_181" data-name="Trazado 181" d="M60.469,14.133l8.054-8.054L66.968,4.526a.653.653,0,0,1-.894-.952L69.428.223a.651.651,0,1,1,.921.921l.028-.028,4.259,4.256-.028.03a.651.651,0,0,1,.921.921L72.178,9.678a.653.653,0,0,1-.924-.924l-.028.028L69.671,7.229,61.62,15.28a.812.812,0,1,1-1.15-1.147Z" transform="translate(-60.231 -0.03)" fill="#2c2c2c"/>
      </g>
    </g>
  </g>
</svg>
