<svg xmlns="http://www.w3.org/2000/svg" width="29.422" height="29.422" viewBox="0 0 29.422 29.422">
  <g id="Page-1" transform="translate(0.003 -0.059)">
    <g id="_003---Call" data-name="003---Call" transform="translate(-0.003 0.059)">
      <path id="Shape" d="M13.194,17.286a11.887,11.887,0,0,1-3.589-6.749,1.01,1.01,0,0,1,.29-.845L12.17,7.418a1.016,1.016,0,0,0,.143-1.257L8.691.537A1.016,1.016,0,0,0,7.375.167L1.56,2.905A1.01,1.01,0,0,0,1,3.914c.3,2.894,1.567,10.01,8.559,17s14.107,8.254,17,8.559a1.01,1.01,0,0,0,1.009-.559L30.311,23.1a1.016,1.016,0,0,0-.368-1.314l-5.624-3.621a1.016,1.016,0,0,0-1.257.142l-2.274,2.275a1.01,1.01,0,0,1-.845.29,11.887,11.887,0,0,1-6.749-3.589Z" transform="translate(-0.997 -0.059)" fill="#2c2c2c"/>
    </g>
  </g>
</svg>
