<svg xmlns="http://www.w3.org/2000/svg" width="22.176" height="18.018" viewBox="0 0 22.176 18.018">
  <g id="store" transform="translate(0 -48.003)">
    <g id="Grupo_110" data-name="Grupo 110" transform="translate(0 48.003)">
      <g id="Grupo_109" data-name="Grupo 109" transform="translate(0 0)">
        <path id="Trazado_182" data-name="Trazado 182" d="M22.052,53.145l-3.465-4.851A.722.722,0,0,0,18.019,48H4.158a.722.722,0,0,0-.568.291L.125,53.145,0,53.519a2.777,2.777,0,0,0,2.772,2.8,2.748,2.748,0,0,0,2.079-.942,2.764,2.764,0,0,0,4.158,0,2.764,2.764,0,0,0,4.158,0,2.764,2.764,0,0,0,4.158,0,2.748,2.748,0,0,0,2.079.942,2.777,2.777,0,0,0,2.772-2.8Z" transform="translate(0 -48.003)" fill="#2c2c2c"/>
      </g>
    </g>
    <g id="Grupo_112" data-name="Grupo 112" transform="translate(1.386 57.145)">
      <g id="Grupo_111" data-name="Grupo 111">
        <path id="Trazado_183" data-name="Trazado 183" d="M50.021,259.635a4.147,4.147,0,0,1-2.079-.56,4.247,4.247,0,0,1-4.158,0,4.247,4.247,0,0,1-4.158,0,4.247,4.247,0,0,1-4.158,0,4.214,4.214,0,0,1-3.465.29v7.2a1.387,1.387,0,0,0,1.386,1.386H44.477v-6.93h4.158v6.93h1.386a1.387,1.387,0,0,0,1.386-1.386v-7.184A4.133,4.133,0,0,1,50.021,259.635Zm-9.7,5.544H34.775v-4.158h5.544Z" transform="translate(-32.003 -259.075)" fill="#2c2c2c"/>
      </g>
    </g>
  </g>
</svg>
