<svg xmlns="http://www.w3.org/2000/svg" width="35.98" height="35.981" viewBox="0 0 35.98 35.981">
  <g id="Grupo_43" data-name="Grupo 43" transform="translate(0)">
    <path id="Trazado_144" data-name="Trazado 144" d="M107.212,797.773a17.991,17.991,0,1,1,17.99-17.99,18.01,18.01,0,0,1-17.99,17.99m0-34.048a16.057,16.057,0,1,0,16.058,16.058,16.076,16.076,0,0,0-16.058-16.058" transform="translate(-89.222 -761.792)" fill="#fff"/>
    <path id="Trazado_145" data-name="Trazado 145" d="M125.326,789.844a4.664,4.664,0,0,1-1.15.329c.185-.032.458-.366.568-.5a2.135,2.135,0,0,0,.383-.7c.01-.02.017-.045,0-.06a.061.061,0,0,0-.06.006,5.946,5.946,0,0,1-1.366.523.092.092,0,0,1-.094-.025,1.345,1.345,0,0,0-.12-.123,2.465,2.465,0,0,0-.662-.406,2.313,2.313,0,0,0-1.015-.164,2.426,2.426,0,0,0-.963.273,2.474,2.474,0,0,0-.777.634,2.368,2.368,0,0,0-.464.929,2.526,2.526,0,0,0-.025.982c.008.055,0,.062-.046.055a7.3,7.3,0,0,1-4.7-2.39c-.054-.062-.084-.062-.129.005a2.377,2.377,0,0,0,.406,2.812c.092.087.187.174.288.255a2.414,2.414,0,0,1-.906-.255c-.054-.035-.082-.014-.087.048a1.432,1.432,0,0,0,.015.268,2.406,2.406,0,0,0,1.484,1.919,1.32,1.32,0,0,0,.3.092,2.653,2.653,0,0,1-.889.028c-.065-.012-.089.02-.065.083a2.5,2.5,0,0,0,1.866,1.563c.085.014.17.014.254.034,0,.009-.01.009-.015.017a2.981,2.981,0,0,1-1.275.675,4.584,4.584,0,0,1-1.937.247c-.1-.015-.125-.015-.154,0s0,.042.03.07c.132.086.266.164.4.239a6.336,6.336,0,0,0,1.295.518,6.894,6.894,0,0,0,6.693-1.565,7.022,7.022,0,0,0,1.852-5.123c0-.074.086-.115.139-.153a4.529,4.529,0,0,0,.906-.947.28.28,0,0,0,.056-.181v-.011c0-.03,0-.021-.042,0" transform="translate(-101.752 -775.418)" fill="#fff"/>
  </g>
</svg>
